PathFileType	4	(X/Y/Z)	C:/Users/beibeiliu/ov580/test_trc/User3\sequence.8_training_dense_left.trc
DataRate	CameraRate	NumFrames	NumMarkers	Units	OrigDataRate	OrigDataStartFrame	OrigNumFrames
120	120	23	19	mm	120	108	161
Frame#	Time	ThumbCMC			ThumbMCP			ThumbIP			ThumbTip			IndexMCP			IndexPIP			IndexTip			MiddleMCP			MiddlePIP			MiddleTip			RingMCP			RingPIP			RingTip			PinkyMCP			PinkyPIP			PinkyTip			BackHand1			BackHand2			BackHand3	
		X0	Y0	Z0	X1	Y1	Z1	X2	Y2	Z2	X3	Y3	Z3	X4	Y4	Z4	X5	Y5	Z5	X6	Y6	Z6	X7	Y7	Z7	X8	Y8	Z8	X9	Y9	Z9	X10	Y10	Z10	X11	Y11	Z11	X12	Y12	Z12	X13	Y13	Z13	X14	Y14	Z14	X15	Y15	Z15	X16	Y16	Z16	X17	Y17	Z17	X18	Y18	Z18	
107	0.891667	-144.659	-26.8565	21.9298	-126.693	-35.3085	-5.31451	-115.273	-43.2963	-26.89	-105.749	-51.0836	-48.9369	-164.298	3.37427	-45.3712	-161.426	5.65448	-73.7065	-160.558	0.315073	-100.841	-196.542	6.06267	-50.4331	-196.767	6.01232	-79.4154	-200.532	-2.36706	-107.148	-215.916	-15.3795	-42.0234	-220.515	-36.0816	-62.8446	-206.554	-67.2002	-56.4421	-228.864	-30.5192	-28.8347	-223.736	-54.099	-39.6882	-205.834	-71.8925	-22.5539	-210.055	-3.03805	12.5885	-202.622	-8.80097	44.4031	-172.296	0.371457	20.3628	
108	0.9	-147.972	-17.2154	11.8978	-134.879	-30.765	-13.1153	-120.165	-42.2152	-35.3657	-113.599	-53.3068	-52.3744	-167.146	9.01294	-58.1258	-164.071	6.52766	-86.2139	-160.804	-5.60397	-113.575	-196.731	14.576	-62.267	-200.516	9.76714	-91.9767	-203.143	-3.65942	-120.701	-220.728	-12.1591	-52.8327	-223.846	-37.0799	-63.9062	-211.566	-65.034	-47.6403	-232.448	-23.7114	-34.5665	-225.461	-51.5237	-36.2279	-208.452	-62.0739	-18.8634	-209.169	12.8213	1.83327	-203.633	9.43513	32.3683	-175.477	9.89107	8.2398	
109	0.908333	-154.43	-22.6998	3.16824	-136.909	-42.2991	-14.082	-129.55	-59.5977	-34.0985	-120.86	-74.2558	-51.5779	-174.865	-13.4592	-70.5521	-170.245	-23.2461	-92.3025	-168.999	-40.0608	-113.536	-202.215	-6.99137	-68.6097	-205.561	-19.126	-99.5234	-212.489	-40.7307	-120.047	-224.634	-28.8401	-55.1913	-226.436	-60.5691	-56.6515	-219.038	-78.173	-34.5108	-238.764	-37.0771	-36.3784	-226.629	-61.2845	-30.8635	-212.871	-66.6284	-5.57885	-213.928	7.62357	-6.87996	-206.361	12.0691	22.8645	-177.145	6.84111	-0.293762	
110	0.916667	-153.198	-28.0345	10.5734	-134.747	-52.729	-5.79097	-124.696	-72.9588	-20.0602	-116.549	-89.2057	-31.6019	-171.112	-45.5068	-65.718	-167.306	-65.4505	-86.0127	-161.851	-83.5375	-99.0503	-198.481	-45.1764	-70.6438	-200.468	-66.9659	-91.7594	-199.163	-99.9516	-105.629	-218.086	-60.6152	-49.6322	-217.539	-90.6616	-43.0959	-208.772	-100.591	-12.6312	-231.726	-63.6541	-29.8842	-220.471	-84.1408	-16.5375	-205.845	-77.0105	5.89369	-217.935	-11.8921	-13.8744	-214.044	1.07471	14.5609	-180.1	-5.21231	-6.37496	
111	0.925	-156.281	-27.3036	15.3229	-133.476	-44.4891	11.2476	-112.211	-62.3844	0.940236	-95.7899	-77.1293	-4.55801	-157.845	-65.1999	-53.3588	-147.1	-84.7341	-67.1693	-135.08	-109.198	-75.7473	-181.713	-74.225	-59.9238	-175.696	-99.2081	-72.058	-163.122	-132.997	-75.9403	-200.983	-91.3876	-36.0438	-191.249	-117.254	-24.0274	-181.52	-115.269	7.24048	-217.334	-93.1377	-16.103	-199.752	-108.349	1.82156	-188.576	-86.7053	26.2703	-215.501	-40.6129	-17.2979	-220.093	-19.6467	10.5766	-189.37	-19.3971	-4.43185	
112	0.933333	-165.817	-16.3055	19.6097	-135.165	-25.5553	15.6308	-110.008	-34.4866	9.7116	-87.118	-41.8322	6.81897	-146.857	-61.9865	-43.105	-122.884	-76.9867	-54.1187	-102.79	-96.4553	-57.829	-167.693	-84.2974	-45.3044	-143.826	-99.6148	-56.8977	-119.074	-122.809	-55.1778	-172.222	-103.016	-23.27	-152.809	-118.17	-7.82627	-146.565	-105.936	21.9336	-183.104	-109.266	-1.30168	-165.894	-109.421	15.4172	-168.249	-83.5315	34.7725	-213.979	-61.5929	-7.31836	-225.393	-43.8521	11.9897	-197.358	-29.7414	-4.99719	
113	0.941667	-182.988	-8.67742	15.6635	-156.432	-1.75849	13.7055	-126.672	3.23502	6.81945	-102.504	3.5326	2.10284	-148.376	-46.8289	-40.5346	-119.126	-51.3711	-52.9658	-92.7544	-55.7935	-55.1479	-150.632	-77.3477	-42.3439	-126.256	-78.6335	-52.2802	-88.7654	-88.6405	-48.9363	-147.136	-89.9701	-16.6718	-123.095	-89.6068	-1.48497	-125.104	-72.8465	30.4734	-156.61	-99.2965	7.53821	-137.572	-87.2596	27.4943	-153.966	-65.5033	42.9841	-202.483	-71.9049	-4.21836	-225.51	-65.1522	19.6234	-207.314	-36.5407	-0.614259	
114	0.95	-206.402	-11.8428	15.2907	-180.692	10.2324	3.14553	-158.204	25.4721	-7.08844	-138.901	32.9862	-10.6869	-161.515	-32.2062	-47.899	-135.684	-23.4472	-62.0792	-112.225	-19.1683	-66.4566	-152.927	-55.8004	-45.3461	-122.652	-52.0135	-59.7368	-96.4016	-40.7836	-63.6927	-134.875	-67.4701	-19.4236	-114.201	-53.2704	-9.1821	-118.539	-34.8055	18.6173	-140.307	-74.7606	3.90918	-125.031	-53.8367	17.0863	-144.637	-41.9223	37.9521	-192.858	-76.3935	4.03129	-210.127	-77.6449	23.7243	-213.193	-49.3898	1.23679	
115	0.958333	-217.255	-24.0417	9.78356	-210.343	2.20681	-2.59832	-197.448	27.6663	-21.2786	-182.944	40.5449	-30.4448	-180.109	-34.0045	-55.709	-162.823	-17.8515	-78.1171	-147.942	-2.20187	-87.3069	-157.112	-53.7122	-52.9281	-135.535	-39.8447	-73.4433	-118.578	-18.1911	-83.9577	-141.564	-49.4314	-29.8491	-121.564	-21.2094	-24.2646	-132.173	-6.11114	0.230435	-130.364	-50.8357	-6.81319	-126.128	-27.1122	5.77302	-150.845	-20.0329	23.7	-177.927	-77.6504	1.90001	-195.166	-82.0373	26.2703	-211.896	-58.5097	-0.109694	
116	0.966667	-223.017	-41.9796	10.4597	-225.627	-15.1437	-13.369	-225.923	5.67383	-29.8928	-215.114	21.2834	-47.214	-192.386	-53.984	-60.604	-186.808	-43.512	-87.0065	-178.987	-22.2913	-106.231	-166.005	-66.3115	-58.9414	-156.897	-52.865	-88.1371	-140.671	-28.8536	-105.051	-145.57	-52.1449	-41.4203	-136.958	-20.0221	-45.6376	-144.2	-2.17099	-20.109	-135.965	-44.869	-21.7437	-133.951	-19.4591	-13.5771	-153.287	-14.3015	10.6927	-172.305	-83.9055	-2.374	-177.637	-89.175	28.2112	-207.108	-76.3944	3.94659	
117	0.975	-222.775	-55.1037	11.5176	-232.074	-33.7003	-14.9684	-234.401	-19.1238	-34.9337	-232.038	-5.79899	-54.4677	-200.233	-82.7431	-61.4438	-203.632	-76.0041	-89.8934	-198.436	-61.8053	-113.356	-173.726	-91.9162	-58.7487	-166.968	-86.2217	-88.4108	-158.239	-67.4283	-114.139	-154.09	-70.7027	-49.2626	-146.428	-44.9767	-60.344	-151.937	-18.6339	-36.8641	-137.144	-62.1791	-28.0993	-140.564	-33.3184	-26.6495	-157.918	-23.4179	-3.30681	-167.932	-96.4446	-1.54763	-175.99	-93.4618	33.3382	-199.851	-90.4558	7.8855	
118	0.983333	-222.45	-65.4337	12.3799	-232.002	-48.6425	-15.9676	-236.069	-38.2449	-39.6235	-242.586	-24.6316	-58.5082	-216.406	-106.332	-51.8795	-220.412	-106.42	-81.8751	-216.982	-100.197	-106.166	-190.598	-117.092	-51.4619	-189.188	-118.45	-81.439	-179.5	-107.001	-113.873	-160.351	-96.9551	-49.4248	-152.686	-74.0002	-62.954	-155.675	-41.3916	-46.5641	-146.178	-86.5772	-30.0879	-144.977	-59.5314	-34.8925	-160.243	-41.5368	-14.1709	-174.639	-113.226	8.94775	-177.957	-104.188	39.8188	-210.357	-99.0385	18.4368	
119	0.991667	-229.615	-64.7543	14.8818	-238.289	-49.1407	-13.8561	-242.811	-39.8962	-40.3242	-243.801	-31.0265	-60.7202	-237.683	-111.163	-40.3888	-243.941	-116.072	-68.7987	-242.091	-115.117	-97.941	-214.877	-131.526	-43.6766	-216.344	-135.487	-75.7466	-210.139	-130.418	-108.913	-184.226	-117.718	-43.5255	-173.424	-96.5115	-62.9905	-163.196	-67.4334	-53.1249	-165.451	-107.673	-28.6027	-157.759	-81.9369	-35.4463	-167.415	-59.9238	-17.0914	-195.673	-124.211	13.3526	-192.473	-110.989	43.7103	-223.107	-101.996	26.6856	
120	1	-234.992	-51.7567	18.7172	-232.672	-42.3476	-9.22002	-235.445	-32.0517	-37.9558	-235.045	-24.4322	-56.6289	-262.324	-102.882	-36.6216	-268.533	-105.734	-61.1341	-271.015	-105.82	-88.6033	-247.534	-124.954	-32.9717	-254.261	-129.915	-65.9013	-248.501	-131.12	-96.401	-217.87	-123.707	-33.2177	-199.917	-114.148	-57.6406	-175.734	-86.9273	-52.5794	-194.717	-120.611	-25.5344	-179.704	-99.1465	-34.689	-172.523	-79.5322	-21.3425	-223.352	-121.025	23.8964	-214.865	-108.545	49.7926	-244.644	-89.0797	27.1886	
121	1.00833	-230.23	-39.4467	16.7444	-223.573	-32.1895	-9.62249	-224.201	-22.4525	-38.4168	-222.161	-16.4621	-63.8313	-276.374	-81.0649	-33.0616	-285.728	-81.7761	-58.0954	-286.494	-85.3867	-88.516	-275.011	-105.497	-32.9559	-282.746	-106.051	-58.2677	-279.3	-114.599	-90.7095	-241.758	-119.56	-30.4512	-221.624	-117.732	-54.1087	-193.452	-100.98	-51.2812	-221.575	-125.403	-19.3923	-199.223	-113.124	-32.5756	-184.184	-93.0121	-18.9747	-247.649	-107.296	23.3175	-232.246	-98.2707	53.6378	-252.704	-71.4591	32.1606	
122	1.01667	-220.61	-35.1439	18.1894	-214.322	-27.2381	-13.3283	-208.715	-16.7023	-43.2487	-205.478	-14.9813	-64.7949	-281.616	-51.1064	-33.3804	-289.548	-48.2139	-56.3386	-291.989	-47.3733	-83.2129	-287.988	-76.5435	-29.8586	-297.025	-76.4498	-58.4899	-296.168	-81.2379	-93.1459	-262.804	-102.149	-32.0905	-242.642	-107.83	-54.5672	-212.387	-103.011	-50.1298	-243.179	-115.71	-22.698	-221.262	-110.701	-32.4305	-201.413	-93.0758	-19.9151	-262.86	-90.4183	23.7383	-246.146	-83.7021	54.1072	-252.218	-50.9085	30.9836	
123	1.025	-210.324	-23.7958	14.1394	-201.477	-20.2166	-16.3834	-195.444	-16.4187	-43.4444	-187.152	-14.7404	-63.3603	-269.864	-20.3614	-32.2836	-281.378	-15.5104	-60.6492	-281.296	-14.1163	-89.1326	-287.073	-42.9713	-31.2488	-298.027	-44.179	-59.7193	-296.666	-45.6358	-93.1748	-272.833	-72.5074	-30.053	-256.813	-87.517	-55.6372	-223.994	-91.7322	-50.5727	-261.29	-93.8998	-19.4319	-236.269	-96.7552	-33.8487	-212.052	-93.3335	-20.5375	-266.354	-66.1848	26.6253	-251.029	-63.6943	49.7683	-246.966	-36.1109	32.8002	
124	1.03333	-197.2	-21.2644	14.0376	-186.937	-21.4301	-14.4623	-175.415	-16.0526	-43.6711	-170.501	-18.9954	-63.0257	-251.791	0.721962	-34.2302	-257.835	9.53565	-60.0319	-258.268	12.5269	-88.5611	-271.363	-11.1076	-32.6693	-282.736	-7.9118	-63.5592	-281.515	-10.0658	-95.8169	-271.87	-46.0764	-32.6999	-261.469	-59.9115	-58.7733	-229.144	-76.1168	-52.6729	-267.059	-71.3252	-21.9581	-242.601	-80.7658	-35.3359	-218.579	-81.8201	-18.5001	-262.761	-37.4542	20.8535	-248.582	-46.4012	51.0072	-232.725	-19.953	30.0694	
125	1.04167	-181.624	-19.8624	12.9926	-167.563	-23.9458	-13.203	-157.754	-24.4021	-41.6022	-154.269	-27.2364	-63.7569	-224.221	15.5774	-37.3657	-224.955	26.0882	-64.5023	-227.113	26.9351	-93.5106	-250.675	11.8392	-39.8484	-257.712	16.5553	-67.7394	-259.006	11.5099	-101.658	-261.343	-22.0827	-37.727	-250.628	-41.2416	-63.974	-232.074	-66.8057	-54.9394	-262.648	-46.8512	-25.5227	-243.023	-64.5903	-38.3372	-223.32	-72.9526	-18.1285	-252.429	-18.0856	18.0458	-240.801	-26.5056	44.8399	-216.644	-7.13742	25.9561	
126	1.05	-168.557	-25.2752	9.75864	-157.523	-32.5608	-14.259	-144.263	-36.5863	-45.8498	-141.256	-42.9803	-65.689	-202.048	16.4182	-49.8275	-199.892	21.1531	-75.1122	-203.264	17.6999	-105.325	-230.249	13.5049	-43.3053	-230.559	20.5853	-73.4732	-233.24	12.4237	-107.43	-247.641	-14.2476	-47.1002	-243.549	-35.3494	-65.5898	-229.343	-62.5009	-58.0546	-256.152	-36.2818	-29.7816	-240.753	-56.1833	-41.0119	-222.471	-66.9314	-17.0314	-237.38	-4.22874	10.7849	-227.188	-18.4574	42.473	-203.764	-1.61633	18.9372	
127	1.05833	-159.466	-31.5019	8.32411	-143.735	-45.6628	-14.5275	-137.45	-55.0309	-41.4022	-130.017	-65.342	-65.799	-189.174	-1.19419	-60.0737	-183.817	-2.86797	-85.6821	-186.17	-12.9021	-114.965	-212.031	2.48604	-59.8467	-216.474	-0.683784	-88.8075	-220.849	-17.1517	-119.18	-233.892	-22.3916	-52.1732	-236.2	-47.1973	-66.6309	-220.008	-75.9636	-52.6427	-247.667	-39.9033	-33.0648	-238.263	-66.4101	-37.1808	-217.683	-70.6268	-13.7191	-222.432	-5.20343	6.37211	-218.089	-9.36674	32.5183	-192.271	-4.04231	10.2193	
128	1.06667	-153.927	-37.4838	8.60511	-138.644	-56.3284	-11.0259	-129.978	-72.3074	-35.5722	-124.379	-87.0413	-51.2894	-180.289	-23.8161	-64.0675	-175.876	-34.8143	-92.7376	-172.897	-51.2222	-111.051	-205.406	-20.1766	-68.6222	-205.683	-30.3088	-96.324	-212.192	-55.9638	-117.76	-226.58	-41.3199	-56.3273	-227.865	-67.4303	-63.8526	-214.794	-92.278	-40.1848	-238.061	-48.6627	-33.2015	-231.363	-78.5868	-31.4179	-210.138	-77.089	-7.31588	-216.496	-10.6144	-4.7968	-211.74	-7.94818	27.4746	-180.868	-8.67773	5.55407	
129	1.075	-149.516	-38.6693	9.94636	-134.948	-60.8437	-5.34333	-123.516	-81.6036	-27.3145	-119.764	-96.6043	-36.7065	-169.842	-42.5699	-63.0972	-165.857	-62.7514	-90.0318	-163.913	-82.8857	-101.942	-200.487	-40.775	-67.8369	-197.514	-60.7066	-94.0265	-200.489	-90.9918	-108.228	-219.14	-60.2365	-52.7358	-218.923	-89.4423	-53.4699	-206.986	-105.101	-25.9705	-233.827	-63.7762	-31.71	-221.399	-89.667	-25.0147	-202.578	-85.7065	0.482392	-212.544	-16.6519	-10.4659	-207.662	-8.27507	19.0851	-176.794	-13.6675	-2.17298	
